<?xml version="1.0" encoding="utf-8"?>
<!-- Generator: Adobe Illustrator 15.0.0, SVG Export Plug-In . SVG Version: 6.00 Build 0)  -->
<!DOCTYPE svg PUBLIC "-//W3C//DTD SVG 1.1//EN" "http://www.w3.org/Graphics/SVG/1.1/DTD/svg11.dtd">
<svg version="1.1" xmlns="http://www.w3.org/2000/svg" xmlns:xlink="http://www.w3.org/1999/xlink" x="0px" y="0px" width="800px"
	 height="600px" viewBox="0 0 800 600" enable-background="new 0 0 800 600" xml:space="preserve">
<g id="Layer_1" display="none">
	<text transform="matrix(1 0 0 1 81.7026 152.4214)" display="inline"><tspan x="0" y="0" font-family="'CenturyGothic'" font-size="72">topiary</tspan><tspan x="0" y="86.4" font-family="'CenturyGothic'" font-size="72">explorer</tspan></text>
</g>
<g id="Layer_1_copy">
	<path fill="#BAE870" d="M300.561,333.401c-41.086,29.916-228.559,26.015-228.559,26.015s12.488-93.717,33.738-111.002
		c21.249-17.285,237.418-22.747,237.418-22.747S323.754,316.514,300.561,333.401z"/>
	<g>
		<g>
			<path d="M121.743,180.115l4.475-1.392c0.927,2.852,1.341,5.488,1.24,7.909s-0.637,4.721-1.607,6.902
				c-0.972,2.182-2.452,4.267-4.442,6.257c-4.413,4.413-9.308,6.417-14.689,6.013c-5.38-0.403-9.893-2.428-13.539-6.074
				c-3.431-3.431-5.435-7.542-6.013-12.333c-0.744-6.084,1.124-11.366,5.603-15.845c4.611-4.611,10.042-6.545,16.292-5.802
				c4.427,0.512,8.504,2.6,12.233,6.262l-24.337,24.337c3.208,3.076,6.787,4.647,10.737,4.714c3.951,0.068,7.353-1.326,10.207-4.18
				c1.377-1.377,2.478-2.956,3.302-4.738c0.824-1.781,1.295-3.524,1.416-5.229C122.74,185.211,122.448,182.944,121.743,180.115z
				 M114.459,172.832c-2.32-1.391-4.48-2.199-6.479-2.421c-1.998-0.222-4.066,0.057-6.207,0.837
				c-2.14,0.781-4.014,1.976-5.624,3.585c-2.655,2.655-4.083,5.791-4.285,9.405c-0.151,2.637,0.66,5.555,2.433,8.754
				L114.459,172.832z"/>
			<path d="M131.621,166.571h5.906l10.173,13.993l10.066-13.993h5.917l-13.02,18.069l14.672,20.181h-5.995l-11.642-16.065
				l-11.575,16.065h-5.874l14.492-20.145L131.621,166.571z"/>
			<path d="M170.609,166.571h4.922v7.031c1.943-2.672,4.179-4.676,6.708-6.012s5.35-2.004,8.464-2.004
				c5.432,0,10.08,1.957,13.943,5.871c3.863,3.915,5.795,8.625,5.795,14.133c0,5.625-1.915,10.401-5.743,14.326
				c-3.828,3.926-8.446,5.889-13.855,5.889c-3.044,0-5.842-0.633-8.394-1.898c-2.552-1.266-4.858-3.152-6.918-5.66v20.566h-4.922
				V166.571z M190.296,170.333c-4.256,0-7.839,1.487-10.75,4.46c-2.912,2.974-4.367,6.672-4.367,11.097
				c0,2.903,0.649,5.514,1.947,7.831c1.297,2.317,3.156,4.155,5.577,5.513c2.42,1.358,4.975,2.037,7.664,2.037
				c2.642,0,5.126-0.685,7.453-2.055c2.327-1.369,4.18-3.283,5.56-5.741c1.379-2.458,2.069-5.033,2.069-7.726
				c0-2.715-0.685-5.291-2.052-7.725s-3.209-4.325-5.524-5.671S193.032,170.333,190.296,170.333z"/>
			<path d="M218.914,151.806h4.922v53.016h-4.922V151.806z"/>
			<path d="M252.171,165.587c5.893,0,10.776,2.133,14.651,6.398c3.521,3.891,5.283,8.496,5.283,13.816
				c0,5.344-1.861,10.014-5.582,14.01c-3.722,3.996-8.506,5.994-14.352,5.994c-5.87,0-10.666-1.998-14.387-5.994
				c-3.722-3.996-5.582-8.666-5.582-14.01c0-5.296,1.761-9.891,5.283-13.781C241.359,167.731,246.255,165.587,252.171,165.587z
				 M252.154,170.403c-4.092,0-7.609,1.512-10.549,4.535c-2.94,3.023-4.41,6.68-4.41,10.969c0,2.766,0.67,5.344,2.011,7.734
				c1.34,2.391,3.151,4.236,5.433,5.537c2.281,1.301,4.786,1.951,7.515,1.951c2.728,0,5.233-0.65,7.515-1.951
				c2.281-1.301,4.092-3.146,5.433-5.537c1.34-2.391,2.011-4.969,2.011-7.734c0-4.289-1.476-7.945-4.428-10.969
				C259.733,171.915,256.223,170.403,252.154,170.403z"/>
			<path d="M279.347,166.571h5.027v38.25h-5.027V166.571z"/>
			<path d="M335.142,180.115l4.475-1.392c0.927,2.852,1.341,5.488,1.24,7.909s-0.637,4.721-1.607,6.902
				c-0.972,2.182-2.452,4.267-4.442,6.257c-4.413,4.413-9.308,6.417-14.689,6.013c-5.38-0.403-9.893-2.428-13.539-6.074
				c-3.431-3.431-5.435-7.542-6.013-12.333c-0.744-6.084,1.124-11.366,5.603-15.845c4.611-4.611,10.042-6.545,16.292-5.802
				c4.427,0.512,8.504,2.6,12.233,6.262l-24.337,24.337c3.208,3.076,6.787,4.647,10.737,4.714c3.951,0.067,7.353-1.326,10.207-4.18
				c1.377-1.377,2.478-2.956,3.302-4.738c0.824-1.781,1.295-3.524,1.416-5.229C336.138,185.211,335.846,182.944,335.142,180.115z
				 M327.858,172.832c-2.32-1.391-4.48-2.199-6.479-2.421c-1.998-0.222-4.066,0.057-6.207,0.837
				c-2.14,0.781-4.014,1.976-5.624,3.585c-2.655,2.655-4.083,5.791-4.285,9.405c-0.151,2.637,0.66,5.555,2.433,8.754
				L327.858,172.832z"/>
			<path d="M347.515,166.571h5.027v38.25h-5.027V166.571z"/>
			<path d="M279.578,166.171h5.027v38.25h-5.027V166.171z"/>
			<path fill="#8CC63F" d="M294.925,175.029c-2.323,2.323-12.923,2.02-12.923,2.02s0.706-7.277,1.908-8.62
				s13.424-1.767,13.424-1.767S296.236,173.718,294.925,175.029z"/>
			<path d="M347.578,166.171h5.027v38.25h-5.027V166.171z"/>
			<path fill="#009245" d="M362.925,175.029c-2.323,2.323-12.923,2.02-12.923,2.02s0.706-7.277,1.908-8.62
				s13.424-1.767,13.424-1.767S364.236,173.718,362.925,175.029z"/>
		</g>
		<g>
			<path d="M129.691,113.187c5.893,0,10.776,2.133,14.651,6.398c3.521,3.891,5.283,8.496,5.283,13.816
				c0,5.344-1.861,10.014-5.582,14.01c-3.722,3.996-8.506,5.994-14.352,5.994c-5.87,0-10.666-1.998-14.387-5.994
				c-3.722-3.996-5.582-8.666-5.582-14.01c0-5.296,1.761-9.891,5.283-13.781C118.879,115.332,123.774,113.187,129.691,113.187z
				 M129.673,118.003c-4.092,0-7.609,1.512-10.549,4.535c-2.94,3.023-4.41,6.68-4.41,10.969c0,2.766,0.67,5.344,2.011,7.734
				c1.34,2.391,3.151,4.236,5.433,5.537c2.281,1.301,4.786,1.951,7.515,1.951c2.728,0,5.233-0.65,7.515-1.951
				c2.281-1.301,4.092-3.146,5.433-5.537c1.34-2.391,2.011-4.969,2.011-7.734c0-4.289-1.476-7.945-4.428-10.969
				C137.252,119.515,133.742,118.003,129.673,118.003z"/>
			<path d="M158.8,114.171h4.922v7.031c1.943-2.672,4.179-4.676,6.708-6.012s5.35-2.004,8.464-2.004
				c5.432,0,10.08,1.957,13.943,5.871c3.863,3.915,5.795,8.625,5.795,14.133c0,5.625-1.915,10.401-5.743,14.326
				c-3.828,3.926-8.446,5.889-13.855,5.889c-3.044,0-5.842-0.633-8.394-1.898c-2.552-1.266-4.858-3.152-6.918-5.66v20.566H158.8
				V114.171z M178.488,117.933c-4.256,0-7.839,1.487-10.75,4.46c-2.912,2.974-4.367,6.672-4.367,11.097
				c0,2.903,0.649,5.514,1.947,7.831c1.297,2.317,3.156,4.155,5.577,5.513c2.42,1.358,4.975,2.037,7.664,2.037
				c2.642,0,5.126-0.685,7.453-2.055c2.327-1.369,4.18-3.283,5.56-5.741c1.379-2.458,2.069-5.033,2.069-7.726
				c0-2.715-0.685-5.291-2.052-7.725s-3.209-4.325-5.524-5.671S181.223,117.933,178.488,117.933z"/>
			<rect x="207.105" y="114.171" width="4.922" height="38.25"/>
			<path d="M260.367,114.171v38.25h-4.852v-6.574c-2.062,2.508-4.377,4.395-6.943,5.66s-5.374,1.898-8.42,1.898
				c-5.414,0-10.037-1.963-13.869-5.889c-3.832-3.925-5.748-8.701-5.748-14.326c0-5.507,1.934-10.218,5.801-14.133
				c3.867-3.914,8.52-5.871,13.957-5.871c3.141,0,5.982,0.668,8.525,2.004c2.543,1.336,4.775,3.34,6.697,6.012v-7.031H260.367z
				 M240.697,117.933c-2.739,0-5.268,0.673-7.585,2.02c-2.318,1.346-4.162,3.237-5.531,5.671c-1.369,2.435-2.054,5.01-2.054,7.725
				c0,2.693,0.69,5.268,2.071,7.726c1.381,2.458,3.237,4.372,5.566,5.741c2.329,1.37,4.829,2.055,7.498,2.055
				c2.692,0,5.244-0.679,7.655-2.037c2.411-1.357,4.266-3.195,5.565-5.513s1.949-4.928,1.949-7.831
				c0-4.424-1.458-8.123-4.372-11.097C248.545,119.42,244.958,117.933,240.697,117.933z"/>
			<path d="M269.578,114.171h5.027v38.25h-5.027V114.171z"/>
			<path d="M288.984,114.171h5.203l13.145,29.454l12.765-29.454h5.238l-22.816,52.242h-5.199l7.364-16.889L288.984,114.171z"/>
			<path fill="#8CC63F" d="M214.161,102.861c0.355,2.475-4.664,8.792-4.664,8.792s-4.11-3.749-4.379-5.093
				c-0.27-1.344,5.046-8.981,5.046-8.981S213.96,101.465,214.161,102.861z"/>
			<path fill="#39B54A" d="M284.925,123.029c-2.323,2.323-12.923,2.02-12.923,2.02s0.706-7.277,1.908-8.62
				s13.424-1.767,13.424-1.767S286.236,121.718,284.925,123.029z"/>
			<g>
				<path d="M91.476,99.968h4.922v52.453h-4.922"/>
				<path fill="#8CC63F" d="M106.925,121.029c-2.323,2.323-12.923,2.02-12.923,2.02s0.706-7.277,1.908-8.62
					s13.424-1.767,13.424-1.767S108.236,119.718,106.925,121.029z"/>
				<path fill="#39B54A" d="M79.41,114.029c2.323,2.323,12.923,2.02,12.923,2.02s-0.706-7.277-1.908-8.62
					s-13.424-1.767-13.424-1.767S78.099,112.718,79.41,114.029z"/>
			</g>
		</g>
	</g>
	<g>
		<g>
			<path d="M134.898,310.577l3.091-0.962c0.641,1.97,0.926,3.79,0.856,5.463c-0.069,1.671-0.439,3.26-1.109,4.766
				c-0.672,1.507-1.693,2.947-3.068,4.321c-3.047,3.047-6.428,4.431-10.144,4.151c-3.716-0.277-6.833-1.676-9.351-4.194
				c-2.369-2.368-3.753-5.208-4.152-8.517c-0.514-4.201,0.776-7.85,3.87-10.942c3.185-3.185,6.935-4.521,11.251-4.007
				c3.057,0.354,5.872,1.795,8.447,4.324l-16.807,16.807c2.215,2.125,4.688,3.21,7.415,3.256c2.729,0.047,5.078-0.916,7.048-2.887
				c0.952-0.951,1.712-2.041,2.281-3.271c0.568-1.23,0.895-2.434,0.978-3.611C135.587,314.096,135.387,312.53,134.898,310.577z
				 M129.869,305.547c-1.602-0.96-3.093-1.518-4.474-1.672c-1.38-0.152-2.808,0.039-4.286,0.578
				c-1.478,0.539-2.772,1.365-3.884,2.477c-1.833,1.833-2.819,3.998-2.958,6.494c-0.105,1.821,0.455,3.837,1.679,6.047
				L129.869,305.547z"/>
			<path d="M141.721,301.224h4.079l7.025,9.663l6.952-9.663h4.085l-8.991,12.479l10.133,13.937h-4.14l-8.041-11.094l-7.993,11.094
				h-4.057l10.008-13.912L141.721,301.224z"/>
			<path d="M168.646,301.224h3.399v4.856c1.342-1.846,2.886-3.229,4.631-4.152c1.747-0.922,3.696-1.383,5.847-1.383
				c3.751,0,6.96,1.351,9.628,4.054s4.003,5.956,4.003,9.76c0,3.884-1.323,7.183-3.967,9.894s-5.833,4.066-9.567,4.066
				c-2.103,0-4.034-0.437-5.797-1.311s-3.355-2.178-4.777-3.909v14.203h-3.399V301.224z M182.241,303.822
				c-2.939,0-5.414,1.026-7.425,3.08c-2.01,2.053-3.015,4.607-3.015,7.662c0,2.006,0.447,3.809,1.344,5.408
				c0.896,1.601,2.181,2.869,3.852,3.807c1.671,0.938,3.436,1.407,5.293,1.407c1.824,0,3.539-0.473,5.146-1.419
				c1.607-0.945,2.887-2.268,3.839-3.965c0.953-1.697,1.43-3.475,1.43-5.335c0-1.875-0.474-3.653-1.418-5.335
				c-0.943-1.682-2.215-2.986-3.814-3.916C185.874,304.287,184.13,303.822,182.241,303.822z"/>
			<path d="M202.004,291.027h3.398v36.612h-3.398V291.027z"/>
			<path d="M224.971,300.545c4.07,0,7.442,1.473,10.117,4.418c2.433,2.687,3.649,5.867,3.649,9.541c0,3.691-1.285,6.916-3.854,9.675
				c-2.571,2.76-5.874,4.14-9.912,4.14c-4.054,0-7.365-1.38-9.935-4.14c-2.57-2.759-3.855-5.983-3.855-9.675
				c0-3.658,1.216-6.83,3.648-9.517C217.505,302.025,220.885,300.545,224.971,300.545z M224.959,303.87
				c-2.826,0-5.255,1.044-7.284,3.132c-2.032,2.088-3.046,4.613-3.046,7.574c0,1.91,0.462,3.691,1.389,5.342
				c0.926,1.651,2.177,2.926,3.751,3.824c1.575,0.898,3.307,1.348,5.19,1.348s3.613-0.449,5.189-1.348
				c1.575-0.898,2.826-2.173,3.752-3.824c0.925-1.65,1.389-3.432,1.389-5.342c0-2.961-1.02-5.486-3.059-7.574
				C230.192,304.914,227.769,303.87,224.959,303.87z"/>
			<path d="M243.738,301.224h3.473v26.415h-3.473V301.224z"/>
			<path d="M282.269,310.577l3.091-0.962c0.64,1.97,0.926,3.79,0.855,5.463c-0.069,1.671-0.439,3.26-1.109,4.766
				c-0.671,1.507-1.694,2.947-3.067,4.321c-3.048,3.047-6.43,4.431-10.145,4.151c-3.716-0.277-6.832-1.676-9.351-4.194
				c-2.368-2.368-3.752-5.208-4.152-8.517c-0.513-4.201,0.776-7.85,3.869-10.942c3.186-3.185,6.937-4.521,11.252-4.007
				c3.058,0.354,5.873,1.795,8.448,4.324l-16.807,16.807c2.215,2.125,4.687,3.21,7.414,3.256c2.729,0.047,5.078-0.916,7.049-2.887
				c0.951-0.951,1.712-2.041,2.28-3.271s0.895-2.434,0.977-3.611C282.957,314.096,282.755,312.53,282.269,310.577z M277.238,305.547
				c-1.603-0.96-3.093-1.518-4.474-1.672c-1.38-0.152-2.808,0.039-4.286,0.578c-1.478,0.539-2.772,1.365-3.884,2.477
				c-1.833,1.833-2.819,3.998-2.959,6.494c-0.104,1.821,0.456,3.837,1.681,6.047L277.238,305.547z"/>
			<path d="M290.814,301.224h3.472v26.415h-3.472V301.224z"/>
			<path d="M243.898,300.947h3.471v26.415h-3.471V300.947z"/>
			<path fill="#8CC63F" d="M254.496,307.064c-1.604,1.604-8.925,1.396-8.925,1.396s0.487-5.026,1.317-5.952
				c0.83-0.928,9.271-1.221,9.271-1.221S255.401,306.159,254.496,307.064z"/>
			<path d="M290.857,300.947h3.472v26.415h-3.472V300.947z"/>
			<path fill="#009245" d="M301.455,307.064c-1.604,1.604-8.924,1.396-8.924,1.396s0.486-5.026,1.316-5.952
				c0.831-0.928,9.271-1.221,9.271-1.221S302.36,306.159,301.455,307.064z"/>
		</g>
		<g>
			<path d="M113.997,255.229h3.399v36.223h-3.399"/>
			<path d="M140.389,264.358c4.069,0,7.441,1.473,10.117,4.418c2.432,2.687,3.648,5.867,3.648,9.542c0,3.69-1.285,6.916-3.855,9.675
				c-2.57,2.76-5.874,4.139-9.91,4.139c-4.055,0-7.366-1.379-9.936-4.139c-2.57-2.759-3.855-5.985-3.855-9.675
				c0-3.658,1.216-6.831,3.648-9.517C132.921,265.839,136.303,264.358,140.389,264.358z M140.376,267.684
				c-2.826,0-5.255,1.044-7.285,3.132c-2.03,2.088-3.046,4.612-3.046,7.575c0,1.91,0.463,3.69,1.39,5.341
				c0.926,1.651,2.176,2.925,3.752,3.824c1.575,0.898,3.305,1.347,5.189,1.347c1.883,0,3.614-0.449,5.189-1.347
				c1.575-0.898,2.826-2.173,3.752-3.824c0.926-1.651,1.39-3.432,1.39-5.341c0-2.962-1.02-5.487-3.059-7.575
				C145.609,268.728,143.186,267.684,140.376,267.684z"/>
			<path d="M160.49,265.038h3.399v4.855c1.342-1.845,2.886-3.229,4.633-4.151c1.746-0.923,3.694-1.384,5.845-1.384
				c3.751,0,6.96,1.352,9.629,4.054c2.668,2.703,4.002,5.957,4.002,9.76c0,3.885-1.322,7.183-3.966,9.894s-5.833,4.066-9.568,4.066
				c-2.103,0-4.034-0.437-5.797-1.311c-1.762-0.874-3.355-2.176-4.777-3.909v14.203h-3.399V265.038z M174.086,267.635
				c-2.938,0-5.413,1.027-7.424,3.08c-2.011,2.054-3.016,4.608-3.016,7.663c0,2.005,0.448,3.808,1.345,5.408
				c0.896,1.6,2.18,2.869,3.851,3.807c1.672,0.938,3.437,1.407,5.293,1.407c1.825,0,3.539-0.473,5.147-1.419
				c1.605-0.945,2.886-2.267,3.839-3.965c0.952-1.697,1.43-3.476,1.43-5.335c0-1.875-0.473-3.653-1.417-5.334
				c-0.944-1.682-2.217-2.987-3.815-3.917S175.975,267.635,174.086,267.635z"/>
			<rect x="193.849" y="265.038" width="3.399" height="26.415"/>
			<path d="M230.631,265.038v26.415h-3.351v-4.54c-1.425,1.732-3.022,3.035-4.795,3.909s-3.711,1.311-5.814,1.311
				c-3.739,0-6.932-1.355-9.578-4.066s-3.97-6.009-3.97-9.894c0-3.803,1.336-7.057,4.006-9.76c2.671-2.703,5.884-4.054,9.639-4.054
				c2.17,0,4.131,0.461,5.888,1.384c1.756,0.922,3.298,2.306,4.625,4.151v-4.855H230.631z M217.047,267.635
				c-1.892,0-3.638,0.465-5.238,1.395c-1.602,0.93-2.874,2.235-3.82,3.917c-0.945,1.681-1.417,3.459-1.417,5.334
				c0,1.859,0.476,3.638,1.43,5.335c0.954,1.698,2.235,3.02,3.844,3.965c1.608,0.946,3.334,1.419,5.179,1.419
				c1.858,0,3.62-0.469,5.285-1.407c1.666-0.938,2.946-2.207,3.844-3.807c0.897-1.601,1.347-3.403,1.347-5.408
				c0-3.055-1.007-5.609-3.021-7.663C222.467,268.662,219.989,267.635,217.047,267.635z"/>
			<path d="M236.992,265.038h3.472v26.415h-3.472V265.038z"/>
			<path d="M250.394,265.038h3.593l9.077,20.34l8.816-20.34h3.617l-15.757,36.078h-3.59l5.084-11.664L250.394,265.038z"/>
			<path fill="#8CC63F" d="M124.666,269.773c-1.604,1.604-8.925,1.395-8.925,1.395s0.488-5.026,1.318-5.953
				c0.829-0.927,9.27-1.22,9.27-1.22S125.571,268.868,124.666,269.773z"/>
			<path fill="#8CC63F" d="M198.721,257.227c0.246,1.708-3.22,6.072-3.22,6.072s-2.839-2.589-3.024-3.518
				c-0.187-0.928,3.485-6.202,3.485-6.202S198.583,256.262,198.721,257.227z"/>
			<path fill="#39B54A" d="M247.59,271.155c-1.604,1.604-8.924,1.395-8.924,1.395s0.486-5.026,1.317-5.953
				c0.829-0.927,9.27-1.22,9.27-1.22S248.496,270.249,247.59,271.155z"/>
			<path fill="#39B54A" d="M105.665,264.939c1.604,1.604,8.925,1.395,8.925,1.395s-0.488-5.025-1.317-5.952
				c-0.83-0.927-9.271-1.22-9.271-1.22S104.76,264.034,105.665,264.939z"/>
		</g>
	</g>
	<g>
		<path fill="#BAE870" d="M181.895,74.116c-10.227,18.452-56.893,16.045-56.893,16.045s3.109-57.803,8.398-68.464
			s59.098-14.03,59.098-14.03S187.668,63.7,181.895,74.116z"/>
		<g>
			<path d="M154.477,22.968h4.922v52.454h-4.922"/>
			<path fill="#8CC63F" d="M169.925,44.029c-2.323,2.323-12.923,2.02-12.923,2.02s0.705-7.277,1.907-8.62s13.425-1.767,13.425-1.767
				S171.236,42.718,169.925,44.029z"/>
			<path fill="#39B54A" d="M142.41,37.029c2.323,2.323,12.924,2.02,12.924,2.02s-0.707-7.277-1.908-8.62s-13.424-1.767-13.424-1.767
				S141.099,35.718,142.41,37.029z"/>
		</g>
	</g>
</g>
</svg>
